<?xml version="1.0" encoding="UTF-8" standalone="no"?>
<!-- Uploaded to: SVG Repo, www.svgrepo.com, Generator: SVG Repo Mixer Tools -->

<svg
   width="800px"
   height="800px"
   viewBox="0 0 24 24"
   fill="none"
   version="1.1"
   id="svg1"
   sodipodi:docname="ice.svg"
   inkscape:version="1.4.3 (0d15f75042, 2025-12-25)"
   xmlns:inkscape="http://www.inkscape.org/namespaces/inkscape"
   xmlns:sodipodi="http://sodipodi.sourceforge.net/DTD/sodipodi-0.dtd"
   xmlns="http://www.w3.org/2000/svg"
   xmlns:svg="http://www.w3.org/2000/svg">
  <defs
     id="defs1" />
  <sodipodi:namedview
     id="namedview1"
     pagecolor="#ffffff"
     bordercolor="#666666"
     borderopacity="1.0"
     inkscape:showpageshadow="2"
     inkscape:pageopacity="0.0"
     inkscape:pagecheckerboard="0"
     inkscape:deskcolor="#d1d1d1"
     inkscape:zoom="0.99625"
     inkscape:cx="400"
     inkscape:cy="400"
     inkscape:window-width="1920"
     inkscape:window-height="1006"
     inkscape:window-x="0"
     inkscape:window-y="0"
     inkscape:window-maximized="1"
     inkscape:current-layer="svg1" />
  <path
     d="M12 17L9 20M12 17L15 20M12 17V12M12 17V21M12 7L9 4M12 7L15 4M12 7V12M12 7V3M12 12L7.66985 9.49995M12 12L16.3301 14.4999M12 12L7.66985 14.4999M12 12L16.3301 9.49995M16.3301 14.4999L17.4282 18.598M16.3301 14.4999L20.4282 13.4019M16.3301 14.4999L19.7943 16.5M7.66985 9.49995L3.57178 10.598M7.66985 9.49995L6.57178 5.40187M7.66985 9.49995L4.20581 7.5M16.3301 9.49995L20.4282 10.598M16.3301 9.49995L17.4282 5.40187M16.3301 9.49995L19.7943 7.5M7.66985 14.4999L6.57178 18.598M7.66985 14.4999L3.57178 13.4019M7.66985 14.4999L4.20581 16.5"
     stroke="#000000"
     stroke-width="1.5"
     stroke-linecap="round"
     stroke-linejoin="round"
     id="path1"
     style="fill:none;fill-opacity:1;stroke:#0000ff;stroke-opacity:1" />
</svg>
